<svg id="visual" viewBox="0 0 900 600" width="900" height="600" xmlns="http://www.w3.org/2000/svg" xmlns:xlink="http://www.w3.org/1999/xlink" version="1.1"><path d="M0 121L11.5 119C23 117 46 113 69 108C92 103 115 97 138.2 92C161.3 87 184.7 83 207.8 86C231 89 254 99 277 108C300 117 323 125 346 120C369 115 392 97 415.2 87C438.3 77 461.7 75 484.8 75C508 75 531 77 554 76C577 75 600 71 623 66C646 61 669 55 692.2 53C715.3 51 738.7 53 761.8 56C785 59 808 63 831 63C854 63 877 59 888.5 57L900 55L900 0L888.5 0C877 0 854 0 831 0C808 0 785 0 761.8 0C738.7 0 715.3 0 692.2 0C669 0 646 0 623 0C600 0 577 0 554 0C531 0 508 0 484.8 0C461.7 0 438.3 0 415.2 0C392 0 369 0 346 0C323 0 300 0 277 0C254 0 231 0 207.8 0C184.7 0 161.3 0 138.2 0C115 0 92 0 69 0C46 0 23 0 11.5 0L0 0Z" fill="#3a404c"></path><path d="M0 187L11.5 198C23 209 46 231 69 230C92 229 115 205 138.2 203C161.3 201 184.7 221 207.8 235C231 249 254 257 277 248C300 239 323 213 346 202C369 191 392 195 415.2 193C438.3 191 461.7 183 484.8 174C508 165 531 155 554 147C577 139 600 133 623 142C646 151 669 175 692.2 172C715.3 169 738.7 139 761.8 127C785 115 808 121 831 128C854 135 877 143 888.5 147L900 151L900 53L888.5 55C877 57 854 61 831 61C808 61 785 57 761.8 54C738.7 51 715.3 49 692.2 51C669 53 646 59 623 64C600 69 577 73 554 74C531 75 508 73 484.8 73C461.7 73 438.3 75 415.2 85C392 95 369 113 346 118C323 123 300 115 277 106C254 97 231 87 207.8 84C184.7 81 161.3 85 138.2 90C115 95 92 101 69 106C46 111 23 115 11.5 117L0 119Z" fill="#2a2f38"></path><path d="M0 259L11.5 268C23 277 46 295 69 292C92 289 115 265 138.2 261C161.3 257 184.7 273 207.8 287C231 301 254 313 277 304C300 295 323 265 346 253C369 241 392 247 415.2 249C438.3 251 461.7 249 484.8 246C508 243 531 239 554 235C577 231 600 227 623 229C646 231 669 239 692.2 237C715.3 235 738.7 223 761.8 216C785 209 808 207 831 210C854 213 877 221 888.5 225L900 229L900 149L888.5 145C877 141 854 133 831 126C808 119 785 113 761.8 125C738.7 137 715.3 167 692.2 170C669 173 646 149 623 140C600 131 577 137 554 145C531 153 508 163 484.8 172C461.7 181 438.3 189 415.2 191C392 193 369 189 346 200C323 211 300 237 277 246C254 255 231 247 207.8 233C184.7 219 161.3 199 138.2 201C115 203 92 227 69 228C46 229 23 207 11.5 196L0 185Z" fill="#1b1e25"></path><path d="M0 421L11.5 439C23 457 46 493 69 494C92 495 115 461 138.2 443C161.3 425 184.7 423 207.8 432C231 441 254 461 277 452C300 443 323 405 346 391C369 377 392 387 415.2 393C438.3 399 461.7 401 484.8 412C508 423 531 443 554 432C577 421 600 379 623 367C646 355 669 373 692.2 393C715.3 413 738.7 435 761.8 441C785 447 808 437 831 442C854 447 877 467 888.5 477L900 487L900 227L888.5 223C877 219 854 211 831 208C808 205 785 207 761.8 214C738.7 221 715.3 233 692.2 235C669 237 646 229 623 227C600 225 577 229 554 233C531 237 508 241 484.8 244C461.7 247 438.3 249 415.2 247C392 245 369 239 346 251C323 263 300 293 277 302C254 311 231 299 207.8 285C184.7 271 161.3 255 138.2 259C115 263 92 287 69 290C46 293 23 275 11.5 266L0 257Z" fill="#181b21"></path><path d="M0 601L11.5 601C23 601 46 601 69 601C92 601 115 601 138.2 601C161.3 601 184.7 601 207.8 601C231 601 254 601 277 601C300 601 323 601 346 601C369 601 392 601 415.2 601C438.3 601 461.7 601 484.8 601C508 601 531 601 554 601C577 601 600 601 623 601C646 601 669 601 692.2 601C715.3 601 738.7 601 761.8 601C785 601 808 601 831 601C854 601 877 601 888.5 601L900 601L900 485L888.5 475C877 465 854 445 831 440C808 435 785 445 761.8 439C738.7 433 715.3 411 692.2 391C669 371 646 353 623 365C600 377 577 419 554 430C531 441 508 421 484.8 410C461.7 399 438.3 397 415.2 391C392 385 369 375 346 389C323 403 300 441 277 450C254 459 231 439 207.8 430C184.7 421 161.3 423 138.2 441C115 459 92 493 69 492C46 491 23 455 11.5 437L0 419Z" fill="#16181d"></path></svg>