<svg id="visual" viewBox="0 0 900 600" width="900" height="600" xmlns="http://www.w3.org/2000/svg" xmlns:xlink="http://www.w3.org/1999/xlink" version="1.1"><path d="M0 91L10 89C20 87 40 83 60 87C80 91 100 103 120 101C140 99 160 83 180 73C200 63 220 59 240 72C260 85 280 115 300 128C320 141 340 137 360 125C380 113 400 93 420 92C440 91 460 109 480 121C500 133 520 139 540 128C560 117 580 89 600 90C620 91 640 121 660 127C680 133 700 115 720 111C740 107 760 117 780 115C800 113 820 99 840 90C860 81 880 77 890 75L900 73L900 0L890 0C880 0 860 0 840 0C820 0 800 0 780 0C760 0 740 0 720 0C700 0 680 0 660 0C640 0 620 0 600 0C580 0 560 0 540 0C520 0 500 0 480 0C460 0 440 0 420 0C400 0 380 0 360 0C340 0 320 0 300 0C280 0 260 0 240 0C220 0 200 0 180 0C160 0 140 0 120 0C100 0 80 0 60 0C40 0 20 0 10 0L0 0Z" fill="#36394d"></path><path d="M0 193L10 187C20 181 40 169 60 165C80 161 100 165 120 157C140 149 160 129 180 122C200 115 220 121 240 135C260 149 280 171 300 192C320 213 340 233 360 224C380 215 400 177 420 165C440 153 460 167 480 180C500 193 520 205 540 194C560 183 580 149 600 155C620 161 640 207 660 215C680 223 700 193 720 186C740 179 760 195 780 199C800 203 820 195 840 186C860 177 880 167 890 162L900 157L900 71L890 73C880 75 860 79 840 88C820 97 800 111 780 113C760 115 740 105 720 109C700 113 680 131 660 125C640 119 620 89 600 88C580 87 560 115 540 126C520 137 500 131 480 119C460 107 440 89 420 90C400 91 380 111 360 123C340 135 320 139 300 126C280 113 260 83 240 70C220 57 200 61 180 71C160 81 140 97 120 99C100 101 80 89 60 85C40 81 20 85 10 87L0 89Z" fill="#272938"></path><path d="M0 367L10 377C20 387 40 407 60 403C80 399 100 371 120 346C140 321 160 299 180 302C200 305 220 333 240 360C260 387 280 413 300 408C320 403 340 367 360 355C380 343 400 355 420 351C440 347 460 327 480 317C500 307 520 307 540 305C560 303 580 299 600 305C620 311 640 327 660 322C680 317 700 291 720 294C740 297 760 329 780 340C800 351 820 341 840 330C860 319 880 307 890 301L900 295L900 155L890 160C880 165 860 175 840 184C820 193 800 201 780 197C760 193 740 177 720 184C700 191 680 221 660 213C640 205 620 159 600 153C580 147 560 181 540 192C520 203 500 191 480 178C460 165 440 151 420 163C400 175 380 213 360 222C340 231 320 211 300 190C280 169 260 147 240 133C220 119 200 113 180 120C160 127 140 147 120 155C100 163 80 159 60 163C40 167 20 179 10 185L0 191Z" fill="#181a25"></path><path d="M0 523L10 530C20 537 40 551 60 555C80 559 100 553 120 546C140 539 160 531 180 527C200 523 220 523 240 524C260 525 280 527 300 532C320 537 340 545 360 540C380 535 400 517 420 516C440 515 460 531 480 531C500 531 520 515 540 507C560 499 580 499 600 507C620 515 640 531 660 538C680 545 700 543 720 544C740 545 760 549 780 552C800 555 820 557 840 556C860 555 880 551 890 549L900 547L900 293L890 299C880 305 860 317 840 328C820 339 800 349 780 338C760 327 740 295 720 292C700 289 680 315 660 320C640 325 620 309 600 303C580 297 560 301 540 303C520 305 500 305 480 315C460 325 440 345 420 349C400 353 380 341 360 353C340 365 320 401 300 406C280 411 260 385 240 358C220 331 200 303 180 300C160 297 140 319 120 344C100 369 80 397 60 401C40 405 20 385 10 375L0 365Z" fill="#161821"></path><path d="M0 601L10 601C20 601 40 601 60 601C80 601 100 601 120 601C140 601 160 601 180 601C200 601 220 601 240 601C260 601 280 601 300 601C320 601 340 601 360 601C380 601 400 601 420 601C440 601 460 601 480 601C500 601 520 601 540 601C560 601 580 601 600 601C620 601 640 601 660 601C680 601 700 601 720 601C740 601 760 601 780 601C800 601 820 601 840 601C860 601 880 601 890 601L900 601L900 545L890 547C880 549 860 553 840 554C820 555 800 553 780 550C760 547 740 543 720 542C700 541 680 543 660 536C640 529 620 513 600 505C580 497 560 497 540 505C520 513 500 529 480 529C460 529 440 513 420 514C400 515 380 533 360 538C340 543 320 535 300 530C280 525 260 523 240 522C220 521 200 521 180 525C160 529 140 537 120 544C100 551 80 557 60 553C40 549 20 535 10 528L0 521Z" fill="#14151d"></path></svg>