<svg id="visual" viewBox="0 0 960 540" width="960" height="540" xmlns="http://www.w3.org/2000/svg" xmlns:xlink="http://www.w3.org/1999/xlink" version="1.1"><path d="M0 50L14.5 56.2C29 62.3 58 74.7 87.2 78.2C116.3 81.7 145.7 76.3 174.8 70.2C204 64 233 57 262 52.5C291 48 320 46 349 44.2C378 42.3 407 40.7 436.2 47C465.3 53.3 494.7 67.7 523.8 72.2C553 76.7 582 71.3 611 64.2C640 57 669 48 698 42.5C727 37 756 35 785.2 35C814.3 35 843.7 37 872.8 41.5C902 46 931 53 945.5 56.5L960 60L960 0L945.5 0C931 0 902 0 872.8 0C843.7 0 814.3 0 785.2 0C756 0 727 0 698 0C669 0 640 0 611 0C582 0 553 0 523.8 0C494.7 0 465.3 0 436.2 0C407 0 378 0 349 0C320 0 291 0 262 0C233 0 204 0 174.8 0C145.7 0 116.3 0 87.2 0C58 0 29 0 14.5 0L0 0Z" fill="#454545"></path><path d="M0 120L14.5 134.3C29 148.7 58 177.3 87.2 187.2C116.3 197 145.7 188 174.8 180.8C204 173.7 233 168.3 262 161.2C291 154 320 145 349 137.8C378 130.7 407 125.3 436.2 132.5C465.3 139.7 494.7 159.3 523.8 167.3C553 175.3 582 171.7 611 169.8C640 168 669 168 698 160C727 152 756 136 785.2 139.7C814.3 143.3 843.7 166.7 872.8 166.7C902 166.7 931 143.3 945.5 131.7L960 120L960 58L945.5 54.5C931 51 902 44 872.8 39.5C843.7 35 814.3 33 785.2 33C756 33 727 35 698 40.5C669 46 640 55 611 62.2C582 69.3 553 74.7 523.8 70.2C494.7 65.7 465.3 51.3 436.2 45C407 38.7 378 40.3 349 42.2C320 44 291 46 262 50.5C233 55 204 62 174.8 68.2C145.7 74.3 116.3 79.7 87.2 76.2C58 72.7 29 60.3 14.5 54.2L0 48Z" fill="#333333"></path><path d="M0 406L14.5 398.8C29 391.7 58 377.3 87.2 370.2C116.3 363 145.7 363 174.8 352.2C204 341.3 233 319.7 262 300.7C291 281.7 320 265.3 349 264.5C378 263.7 407 278.3 436.2 291.8C465.3 305.3 494.7 317.7 523.8 329.3C553 341 582 352 611 358.3C640 364.7 669 366.3 698 366.3C727 366.3 756 364.7 785.2 365.7C814.3 366.7 843.7 370.3 872.8 370.3C902 370.3 931 366.7 945.5 364.8L960 363L960 118L945.5 129.7C931 141.3 902 164.7 872.8 164.7C843.7 164.7 814.3 141.3 785.2 137.7C756 134 727 150 698 158C669 166 640 166 611 167.8C582 169.7 553 173.3 523.8 165.3C494.7 157.3 465.3 137.7 436.2 130.5C407 123.3 378 128.7 349 135.8C320 143 291 152 262 159.2C233 166.3 204 171.7 174.8 178.8C145.7 186 116.3 195 87.2 185.2C58 175.3 29 146.7 14.5 132.3L0 118Z" fill="#222222"></path><path d="M0 503L14.5 496.7C29 490.3 58 477.7 87.2 467.8C116.3 458 145.7 451 174.8 453.8C204 456.7 233 469.3 262 477.3C291 485.3 320 488.7 349 486.8C378 485 407 478 436.2 474.5C465.3 471 494.7 471 523.8 470C553 469 582 467 611 460.7C640 454.3 669 443.7 698 450C727 456.3 756 479.7 785.2 488.7C814.3 497.7 843.7 492.3 872.8 489.7C902 487 931 487 945.5 487L960 487L960 361L945.5 362.8C931 364.7 902 368.3 872.8 368.3C843.7 368.3 814.3 364.7 785.2 363.7C756 362.7 727 364.3 698 364.3C669 364.3 640 362.7 611 356.3C582 350 553 339 523.8 327.3C494.7 315.7 465.3 303.3 436.2 289.8C407 276.3 378 261.7 349 262.5C320 263.3 291 279.7 262 298.7C233 317.7 204 339.3 174.8 350.2C145.7 361 116.3 361 87.2 368.2C58 375.3 29 389.7 14.5 396.8L0 404Z" fill="#1e1e1e"></path><path d="M0 541L14.5 541C29 541 58 541 87.2 541C116.3 541 145.7 541 174.8 541C204 541 233 541 262 541C291 541 320 541 349 541C378 541 407 541 436.2 541C465.3 541 494.7 541 523.8 541C553 541 582 541 611 541C640 541 669 541 698 541C727 541 756 541 785.2 541C814.3 541 843.7 541 872.8 541C902 541 931 541 945.5 541L960 541L960 485L945.5 485C931 485 902 485 872.8 487.7C843.7 490.3 814.3 495.7 785.2 486.7C756 477.7 727 454.3 698 448C669 441.7 640 452.3 611 458.7C582 465 553 467 523.8 468C494.7 469 465.3 469 436.2 472.5C407 476 378 483 349 484.8C320 486.7 291 483.3 262 475.3C233 467.3 204 454.7 174.8 451.8C145.7 449 116.3 456 87.2 465.8C58 475.7 29 488.3 14.5 494.7L0 501Z" fill="#1b1b1b"></path></svg>