<svg id="visual" viewBox="0 0 960 540" width="960" height="540" xmlns="http://www.w3.org/2000/svg" xmlns:xlink="http://www.w3.org/1999/xlink" version="1.1"><path d="M0 212L12.3 211C24.7 210 49.3 208 74 217C98.7 226 123.3 246 148 246C172.7 246 197.3 226 221.8 204.3C246.3 182.7 270.7 159.3 295.2 159.3C319.7 159.3 344.3 182.7 369 191.7C393.7 200.7 418.3 195.3 443 188.2C467.7 181 492.3 172 517 163C541.7 154 566.3 145 591 160.3C615.7 175.7 640.3 215.3 664.8 227C689.3 238.7 713.7 222.3 738.2 215.2C762.7 208 787.3 210 812 199.2C836.7 188.3 861.3 164.7 886 153.8C910.7 143 935.3 145 947.7 146L960 147L960 0L947.7 0C935.3 0 910.7 0 886 0C861.3 0 836.7 0 812 0C787.3 0 762.7 0 738.2 0C713.7 0 689.3 0 664.8 0C640.3 0 615.7 0 591 0C566.3 0 541.7 0 517 0C492.3 0 467.7 0 443 0C418.3 0 393.7 0 369 0C344.3 0 319.7 0 295.2 0C270.7 0 246.3 0 221.8 0C197.3 0 172.7 0 148 0C123.3 0 98.7 0 74 0C49.3 0 24.7 0 12.3 0L0 0Z" fill="#cdd6fa"></path><path d="M0 309L12.3 318.8C24.7 328.7 49.3 348.3 74 360.8C98.7 373.3 123.3 378.7 148 368.8C172.7 359 197.3 334 221.8 322.3C246.3 310.7 270.7 312.3 295.2 308.7C319.7 305 344.3 296 369 294.2C393.7 292.3 418.3 297.7 443 304.8C467.7 312 492.3 321 517 331C541.7 341 566.3 352 591 359.3C615.7 366.7 640.3 370.3 664.8 379.3C689.3 388.3 713.7 402.7 738.2 399C762.7 395.3 787.3 373.7 812 360.2C836.7 346.7 861.3 341.3 886 343.2C910.7 345 935.3 354 947.7 358.5L960 363L960 145L947.7 144C935.3 143 910.7 141 886 151.8C861.3 162.7 836.7 186.3 812 197.2C787.3 208 762.7 206 738.2 213.2C713.7 220.3 689.3 236.7 664.8 225C640.3 213.3 615.7 173.7 591 158.3C566.3 143 541.7 152 517 161C492.3 170 467.7 179 443 186.2C418.3 193.3 393.7 198.7 369 189.7C344.3 180.7 319.7 157.3 295.2 157.3C270.7 157.3 246.3 180.7 221.8 202.3C197.3 224 172.7 244 148 244C123.3 244 98.7 224 74 215C49.3 206 24.7 208 12.3 209L0 210Z" fill="#adb8e2"></path><path d="M0 465L12.3 468.7C24.7 472.3 49.3 479.7 74 483.3C98.7 487 123.3 487 148 482.5C172.7 478 197.3 469 221.8 460.8C246.3 452.7 270.7 445.3 295.2 440.8C319.7 436.3 344.3 434.7 369 432C393.7 429.3 418.3 425.7 443 432C467.7 438.3 492.3 454.7 517 460.2C541.7 465.7 566.3 460.3 591 461.2C615.7 462 640.3 469 664.8 474.3C689.3 479.7 713.7 483.3 738.2 478.8C762.7 474.3 787.3 461.7 812 452.7C836.7 443.7 861.3 438.3 886 433.8C910.7 429.3 935.3 425.7 947.7 423.8L960 422L960 361L947.7 356.5C935.3 352 910.7 343 886 341.2C861.3 339.3 836.7 344.7 812 358.2C787.3 371.7 762.7 393.3 738.2 397C713.7 400.7 689.3 386.3 664.8 377.3C640.3 368.3 615.7 364.7 591 357.3C566.3 350 541.7 339 517 329C492.3 319 467.7 310 443 302.8C418.3 295.7 393.7 290.3 369 292.2C344.3 294 319.7 303 295.2 306.7C270.7 310.3 246.3 308.7 221.8 320.3C197.3 332 172.7 357 148 366.8C123.3 376.7 98.7 371.3 74 358.8C49.3 346.3 24.7 326.7 12.3 316.8L0 307Z" fill="#8f9aca"></path><path d="M0 541L12.3 541C24.7 541 49.3 541 74 541C98.7 541 123.3 541 148 541C172.7 541 197.3 541 221.8 541C246.3 541 270.7 541 295.2 541C319.7 541 344.3 541 369 541C393.7 541 418.3 541 443 541C467.7 541 492.3 541 517 541C541.7 541 566.3 541 591 541C615.7 541 640.3 541 664.8 541C689.3 541 713.7 541 738.2 541C762.7 541 787.3 541 812 541C836.7 541 861.3 541 886 541C910.7 541 935.3 541 947.7 541L960 541L960 420L947.7 421.8C935.3 423.7 910.7 427.3 886 431.8C861.3 436.3 836.7 441.7 812 450.7C787.3 459.7 762.7 472.3 738.2 476.8C713.7 481.3 689.3 477.7 664.8 472.3C640.3 467 615.7 460 591 459.2C566.3 458.3 541.7 463.7 517 458.2C492.3 452.7 467.7 436.3 443 430C418.3 423.7 393.7 427.3 369 430C344.3 432.7 319.7 434.3 295.2 438.8C270.7 443.3 246.3 450.7 221.8 458.8C197.3 467 172.7 476 148 480.5C123.3 485 98.7 485 74 481.3C49.3 477.7 24.7 470.3 12.3 466.7L0 463Z" fill="#707eb3"></path></svg>